# xmcd
#
# Track frame offsets:
#	150
#	11657
#	24902
#	34334
#	48931
#	65636
#	78850
#	97828
#	111294
#	122368
#	134389
#	145675
#	159403
#	170360
#	184466
#	199088
#	213538
#	224699
#	239709
#	251900
#	262062
#	273316
#	285605
#	300060
#
# Disc length: 4171 seconds
#
# Revision: 0
# Processed by: cddbd v1.5.1PL2 Copyright (c) Steve Scherf et al.
# Submitted via: dBpowerAMP V4.0
#
DISCID=5e104918
DTITLE=Various Artist - Illan varjoon himmeään
DYEAR=1900
DGENRE=
TTITLE0=Pekka Tiilikainen and Beatmakers - Cortina
TTITLE1=Markus Törmälä and FBI-beat - Illan varjoon himmeään
TTITLE2=Rock-Ola and The Charades - Mies ja kitara
TTITLE3=Rytmiorkesteri Köyhät - Tyttö metsässä
TTITLE4=The Mustangs - Luokseni jääthän
TTITLE5=Suave Twisters - Ykkönen
TTITLE6=Juha Salminen and Kaukomaa - Yksin
TTITLE7=Pyrstötähti and Henri Hurme - Hunajainen
TTITLE8=Steel - Sade
TTITLE9=Rytmiorkesteri Köyhät - Liikaa viinaa
TTITLE10=The Legends - Etkö tunne rakkauttain
TTITLE11=Jami Tirkkonen and Regents - Miks kylmä on sun sydämes
TTITLE12=Pekka Tiilikainen and Beatmakers - Kuuhun
TTITLE13=Suave Twisters - Me nuoret
TTITLE14=Mika Tapani and Beaters - Illat Granadan
TTITLE15=Pyrstötähti and Henri Hurme - Maanantaitango
TTITLE16=Steel - Koskaan et muuttua saa
TTITLE17=Rock-Ola and The Charades - Rakkautta maistaa sain
TTITLE18=Raili Eronen and Twangers - Yön tummat siivet
TTITLE19=The Legends - Olet paha
TTITLE20=Jami Tirkkonen and The Regents - Meren aalloissa
TTITLE21=Juha Salminen and Kaukomaa - Leirinuotiolla
TTITLE22=Mika Tapani and Beaters - Jos tähdenlennon nään
TTITLE23=Markus Törmälä and FBI-beat - Vain yksin me kaksi
EXTD=Suomalaista laulettua rautalankaa
EXTT0=
EXTT1=
EXTT2=
EXTT3=
EXTT4=
EXTT5=
EXTT6=
EXTT7=
EXTT8=
EXTT9=
EXTT10=
EXTT11=
EXTT12=
EXTT13=
EXTT14=
EXTT15=
EXTT16=
EXTT17=
EXTT18=
EXTT19=
EXTT20=
EXTT21=
EXTT22=
EXTT23=
PLAYORDER=
